<svg preserveAspectRatio="none" width="100%" height="100%" overflow="visible" style="display: block;" viewBox="0 0 32 32" fill="none" xmlns="http://www.w3.org/2000/svg">
<g id="Icon">
<path id="Vector" d="M25.3333 18.6668C27.3199 16.7201 29.3333 14.3868 29.3333 11.3334C29.3333 9.38852 28.5607 7.52326 27.1854 6.14799C25.8101 4.77272 23.9449 4.00011 21.9999 4.00011C19.6533 4.00011 17.9999 4.66677 15.9999 6.66677C13.9999 4.66677 12.3466 4.00011 9.99993 4.00011C8.05501 4.00011 6.18975 4.77272 4.81448 6.14799C3.43921 7.52326 2.6666 9.38852 2.6666 11.3334C2.6666 14.4001 4.6666 16.7334 6.6666 18.6668L15.9999 28.0001L25.3333 18.6668Z" stroke="var(--stroke-0, #4F39F6)" stroke-width="3.27381" stroke-linecap="round" stroke-linejoin="round"/>
<path id="Vector_2" d="M16.0001 6.66663L12.0534 10.6133C11.7825 10.8822 11.5675 11.2021 11.4208 11.5545C11.2741 11.9069 11.1985 12.2849 11.1985 12.6666C11.1985 13.0484 11.2741 13.4263 11.4208 13.7787C11.5675 14.1311 11.7825 14.451 12.0534 14.72C13.1468 15.8133 14.8934 15.8533 16.0534 14.8133L18.8134 12.28C19.5052 11.6522 20.4059 11.3045 21.3401 11.3045C22.2743 11.3045 23.175 11.6522 23.8668 12.28L27.8134 15.8266" stroke="var(--stroke-0, #4F39F6)" stroke-width="3.27381" stroke-linecap="round" stroke-linejoin="round"/>
<path id="Vector_3" d="M24.0001 20.0002L21.3334 17.3335" stroke="var(--stroke-0, #4F39F6)" stroke-width="3.27381" stroke-linecap="round" stroke-linejoin="round"/>
<path id="Vector_4" d="M20 24.0003L17.3334 21.3336" stroke="var(--stroke-0, #4F39F6)" stroke-width="3.27381" stroke-linecap="round" stroke-linejoin="round"/>
</g>
</svg>
