<svg preserveAspectRatio="none" width="100%" height="100%" overflow="visible" style="display: block;" viewBox="0 0 28.44 31.6" fill="none" xmlns="http://www.w3.org/2000/svg">
<path id="Vector" fill-rule="evenodd" clip-rule="evenodd" d="M18.8736 0C20.0756 0 20.6381 0.115544 21.2057 0.430229C21.7074 0.709167 22.1001 1.11705 22.3691 1.63895C22.6143 2.11752 22.7264 2.56564 22.7675 3.35544L22.892 3.49151C23.8529 3.62088 24.4882 3.83547 25.208 4.23628C26.2235 4.79467 27.0543 5.65756 27.5922 6.71306C28.1862 7.86319 28.4144 8.97762 28.4379 11.381L28.44 23.138C28.44 25.8466 28.221 27.0246 27.5925 28.2432C27.0543 29.2993 26.2235 30.1622 25.208 30.7206C24.0369 31.3731 22.9048 31.6 20.2973 31.6H8.14274C5.53671 31.6 4.40438 31.3729 3.23267 30.7209C2.21648 30.1622 1.38573 29.2993 0.847799 28.2438C0.253783 27.0936 0.0255814 25.9792 0.00205898 23.5758L0 11.8188C0 9.1102 0.219035 7.93222 0.847479 6.71368C1.38573 5.65756 2.21648 4.79467 3.23204 4.23628C3.95229 3.83518 4.58669 3.62084 5.54799 3.49151L5.67245 3.35544C5.71365 2.56417 5.82561 2.11592 6.07098 1.63884C6.33363 1.12348 6.73876 0.702686 7.23384 0.430471C7.80211 0.115429 8.36393 0 9.56636 0H18.8736ZM18.6603 3.06692H9.77966C9.428 3.06692 9.26106 3.10045 9.0888 3.19705C8.93331 3.28257 8.8064 3.41438 8.7244 3.57524C8.63215 3.75271 8.60023 3.92424 8.60023 4.28774V5.49285C8.60023 5.85635 8.63215 6.02788 8.72493 6.20637C8.80795 6.36794 8.93163 6.4964 9.08838 6.5833C9.26106 6.68014 9.428 6.71367 9.77966 6.71367H18.6603C19.012 6.71367 19.1789 6.68014 19.3522 6.58296C19.5067 6.49802 19.6336 6.36621 19.7156 6.20535C19.8078 6.02788 19.8398 5.85635 19.8398 5.49285V4.28774C19.8398 3.92424 19.8078 3.75271 19.7151 3.57422C19.6336 3.41438 19.5067 3.28257 19.3512 3.19705C19.1789 3.10045 19.012 3.06692 18.6603 3.06692ZM22.9244 6.56234L22.7501 6.69155C22.6967 7.32522 22.5873 7.71811 22.3691 8.14165C22.1064 8.65711 21.7012 9.0779 21.2062 9.35012C20.6379 9.66516 20.0761 9.78059 18.8736 9.78059H9.56636C8.36444 9.78059 7.8019 9.66505 7.23428 9.35036C6.73876 9.0779 6.33363 8.65711 6.07122 8.14223C5.85228 7.71468 5.74319 7.32319 5.69073 6.69171L5.51583 6.56234C5.20213 6.63424 4.95207 6.73412 4.67254 6.88956C4.12666 7.1897 3.68053 7.65309 3.3919 8.21943C3.08789 8.81103 2.96533 9.38338 2.94701 10.5414L2.94455 24.0847C2.94455 25.4695 3.06026 26.092 3.39212 26.7378C3.68719 27.3104 4.12023 27.7602 4.67195 28.0669C5.24336 28.3837 5.79604 28.5114 6.91248 28.5305L21.2086 28.5331C22.5436 28.5331 23.1447 28.4125 23.7679 28.067C24.3133 27.7671 24.7595 27.3037 25.0481 26.7374C25.3797 26.092 25.4955 25.4695 25.4955 24.0847V10.8722C25.4955 9.48728 25.3797 8.86482 25.0479 8.219C24.7595 7.65309 24.3133 7.1897 23.7675 6.88956C23.5047 6.73938 23.22 6.62876 22.9244 6.56234ZM21.7784 14.1924C21.515 13.7185 21.0292 13.4273 20.5041 13.4273H7.93589C7.41084 13.4273 6.92503 13.7185 6.66158 14.1924C6.39736 14.6677 6.39736 15.2539 6.66158 15.7291C6.92503 16.2031 7.41084 16.4943 7.93591 16.4943H20.5041C21.0292 16.4943 21.515 16.2031 21.7784 15.7291C22.0426 15.2539 22.0426 14.6677 21.7784 14.1924ZM21.7784 21.7453C21.515 21.2714 21.0292 20.9801 20.5041 20.9802H7.93589C7.41084 20.9801 6.92503 21.2714 6.66158 21.7453C6.39736 22.2206 6.39736 22.8067 6.66158 23.282C6.92503 23.7559 7.41084 24.0472 7.93591 24.0471H20.5041C21.0292 24.0472 21.515 23.7559 21.7784 23.282C22.0426 22.8067 22.0426 22.2206 21.7784 21.7453Z" fill="var(--fill-0, #222229)"/>
</svg>
